REM DIRINDEX 1\2\6,1\2\7,1\2\8,1\2\9,1\3\10,1\3\11,1\4\12,1\4\13,1\4\14,1\5\15,1\5\16,1\5\17
REM DIRNAME folder01,folder02,folder03,folder04,folder05,folder06,folder07,folder08,folder09,folder10,folder11,folder12,folder13,folder14,folder15,folder16,folder17
TITLE ""
FILE "1400_2_sec02_0166_0183.mp3" MP3
  TRACK 01 AUDIO
    TITLE "0:"
    INDEX 01 00:00:00
  TRACK 02 AUDIO
    TITLE "13:cjc029_1901"
    INDEX 01 00:00:19
  TRACK 03 AUDIO
    TITLE "0:"
    INDEX 01 00:01:22
  TRACK 04 AUDIO
    TITLE "14:cjc029_1902"
    INDEX 01 00:01:28
  TRACK 05 AUDIO
    TITLE "0:"
    INDEX 01 00:02:34
  TRACK 06 AUDIO
    TITLE "13:cjc029_1903"
    INDEX 01 00:03:17
  TRACK 07 AUDIO
    TITLE "0:"
    INDEX 01 00:04:36
  TRACK 08 AUDIO
    TITLE "14:cjc029_1904"
    INDEX 01 00:04:44
  TRACK 09 AUDIO
    TITLE "0:"
    INDEX 01 00:05:50
  TRACK 10 AUDIO
    TITLE "13:cjc029_1905"
    INDEX 01 00:06:31
  TRACK 11 AUDIO
    TITLE "0:"
    INDEX 01 00:07:41
  TRACK 12 AUDIO
    TITLE "14:cjc029_1906"
    INDEX 01 00:07:47
  TRACK 13 AUDIO
    TITLE "0:"
    INDEX 01 00:11:17
  TRACK 14 AUDIO
    TITLE "13:cjc029_1907"
    INDEX 01 00:11:74
  TRACK 15 AUDIO
    TITLE "0:"
    INDEX 01 00:13:02
  TRACK 16 AUDIO
    TITLE "14:cjc029_1908"
    INDEX 01 00:13:08
  TRACK 17 AUDIO
    TITLE "0:"
    INDEX 01 00:16:12
  TRACK 18 AUDIO
    TITLE "13:cjc029_1909"
    INDEX 01 00:16:67
  TRACK 19 AUDIO
    TITLE "0:"
    INDEX 01 00:18:17
  TRACK 20 AUDIO
    TITLE "14:cjc029_1910"
    INDEX 01 00:18:29
  TRACK 21 AUDIO
    TITLE "0:"
    INDEX 01 00:21:35
  TRACK 22 AUDIO
    TITLE "13:cjc029_1911"
    INDEX 01 00:22:19
  TRACK 23 AUDIO
    TITLE "0:"
    INDEX 01 00:23:57
  TRACK 24 AUDIO
    TITLE "14:cjc029_1912"
    INDEX 01 00:23:59
  TRACK 25 AUDIO
    TITLE "0:"
    INDEX 01 00:24:59
  TRACK 26 AUDIO
    TITLE "13:cjc029_1913"
    INDEX 01 00:25:41
  TRACK 27 AUDIO
    TITLE "0:"
    INDEX 01 00:26:52
  TRACK 28 AUDIO
    TITLE "14:cjc029_1914"
    INDEX 01 00:26:58
  TRACK 29 AUDIO
    TITLE "0:"
    INDEX 01 00:27:65
  TRACK 30 AUDIO
    TITLE "13:cjc029_1915"
    INDEX 01 00:28:49
  TRACK 31 AUDIO
    TITLE "0:"
    INDEX 01 00:29:68
  TRACK 32 AUDIO
    TITLE "14:cjc029_1916"
    INDEX 01 00:29:74
  TRACK 33 AUDIO
    TITLE "0:"
    INDEX 01 00:32:07
  TRACK 34 AUDIO
    TITLE "13:cjc029_1917"
    INDEX 01 00:32:64
  TRACK 35 AUDIO
    TITLE "0:"
    INDEX 01 00:34:16
  TRACK 36 AUDIO
    TITLE "14:cjc029_1918"
    INDEX 01 00:34:24
  TRACK 37 AUDIO
    TITLE "0:"
    INDEX 01 00:37:10
  TRACK 38 AUDIO
    TITLE "13:cjc029_1919"
    INDEX 01 00:37:67
  TRACK 39 AUDIO
    TITLE "0:"
    INDEX 01 00:38:59
  TRACK 40 AUDIO
    TITLE "14:cjc029_1920"
    INDEX 01 00:38:73
  TRACK 41 AUDIO
    TITLE "0:"
    INDEX 01 00:39:64
  TRACK 42 AUDIO
    TITLE "13:cjc029_1921"
    INDEX 01 00:40:44
  TRACK 43 AUDIO
    TITLE "0:"
    INDEX 01 00:41:71
  TRACK 44 AUDIO
    TITLE "14:cjc029_1922"
    INDEX 01 00:42:02
  TRACK 45 AUDIO
    TITLE "0:"
    INDEX 01 00:44:34
  TRACK 46 AUDIO
    TITLE "13:cjc029_1923"
    INDEX 01 00:45:16
  TRACK 47 AUDIO
    TITLE "0:"
    INDEX 01 00:46:35
  TRACK 48 AUDIO
    TITLE "14:cjc029_1924"
    INDEX 01 00:46:39
  TRACK 49 AUDIO
    TITLE "0:"
    INDEX 01 00:47:50
  TRACK 50 AUDIO
    TITLE "12:cjc029_1925"
    INDEX 01 00:49:23
  TRACK 51 AUDIO
    TITLE "0:"
    INDEX 01 00:50:68
  TRACK 52 AUDIO
    TITLE "13:cjc029_1926"
    INDEX 01 00:51:71
  TRACK 53 AUDIO
    TITLE "0:"
    INDEX 01 00:53:13
  TRACK 54 AUDIO
    TITLE "14:cjc029_1927"
    INDEX 01 00:53:19
  TRACK 55 AUDIO
    TITLE "0:"
    INDEX 01 00:54:40
  TRACK 56 AUDIO
    TITLE "13:cjc029_1928"
    INDEX 01 00:55:26
  TRACK 57 AUDIO
    TITLE "0:"
    INDEX 01 00:56:24
  TRACK 58 AUDIO
    TITLE "14:cjc029_1929"
    INDEX 01 00:56:25
  TRACK 59 AUDIO
    TITLE "0:"
    INDEX 01 00:58:62
  TRACK 60 AUDIO
    TITLE "13:cjc029_1930"
    INDEX 01 00:59:43
  TRACK 61 AUDIO
    TITLE "0:"
    INDEX 01 01:00:55
  TRACK 62 AUDIO
    TITLE "14:cjc029_1931"
    INDEX 01 01:00:62
  TRACK 63 AUDIO
    TITLE "0:"
    INDEX 01 01:05:38
  TRACK 64 AUDIO
    TITLE "13:cjc029_1932"
    INDEX 01 01:06:22
  TRACK 65 AUDIO
    TITLE "0:"
    INDEX 01 01:07:53
  TRACK 66 AUDIO
    TITLE "14:cjc029_1933"
    INDEX 01 01:07:61
  TRACK 67 AUDIO
    TITLE "0:"
    INDEX 01 01:09:10
  TRACK 68 AUDIO
    TITLE "13:cjc029_1934"
    INDEX 01 01:09:67
  TRACK 69 AUDIO
    TITLE "0:"
    INDEX 01 01:10:71
  TRACK 70 AUDIO
    TITLE "14:cjc029_1935"
    INDEX 01 01:11:03
  TRACK 71 AUDIO
    TITLE "0:"
    INDEX 01 01:13:71
  TRACK 72 AUDIO
    TITLE "13:cjc029_1936"
    INDEX 01 01:14:63
  TRACK 73 AUDIO
    TITLE "0:"
    INDEX 01 01:15:74
  TRACK 74 AUDIO
    TITLE "14:cjc029_1937"
    INDEX 01 01:16:05
  TRACK 75 AUDIO
    TITLE "0:"
    INDEX 01 01:20:20
